<?xml version="1.0" encoding="UTF-8"?>
<svg width="120px" height="120px" viewBox="0 0 120 120" version="1.1" xmlns="http://www.w3.org/2000/svg" xmlns:xlink="http://www.w3.org/1999/xlink">
    <title>Group</title>
    <g id="Page-1" stroke="none" stroke-width="1" fill="none" fill-rule="evenodd">
        <g id="Artboard" transform="translate(-574.000000, -199.000000)">
            <g id="Group" transform="translate(574.000000, 199.000000)">
                <rect id="Rectangle-Copy" fill="#D33257" x="0" y="0" width="120" height="120" rx="25"></rect>
                <path d="M72.6,19.72 C75.0533333,19.72 77.6,20 80.24,20.56 C82.88,21.12 85.2133333,21.96 87.24,23.08 C88.7333333,23.88 89.7733333,24.8933333 90.36,26.12 C90.9466667,27.3466667 91.1466667,28.6 90.96,29.88 C90.7733333,31.16 90.3066667,32.3066667 89.56,33.32 C88.8133333,34.3333333 87.8533333,35.0133333 86.68,35.36 C85.5066667,35.7066667 84.2266667,35.5333333 82.84,34.84 C81.24,34.0933333 79.6533333,33.52 78.08,33.12 C76.5066667,32.72 74.8666667,32.52 73.16,32.52 C69.8533333,32.52 67.0933333,33.1466667 64.88,34.4 C62.6666667,35.6533333 61,37.48 59.88,39.88 C59.6085061,40.4617727 59.3699179,41.0764512 59.1642355,41.7240355 C61.4437642,41.7645075 63.8020864,42.0428668 66.24,42.56 C68.88,43.12 71.2133333,43.96 73.24,45.08 C74.7333333,45.88 75.7733333,46.8933333 76.36,48.12 C76.9466667,49.3466667 77.1466667,50.6 76.96,51.88 C76.7733333,53.16 76.3066667,54.3066667 75.56,55.32 C74.8133333,56.3333333 73.8533333,57.0133333 72.68,57.36 C71.5066667,57.7066667 70.2266667,57.5333333 68.84,56.84 C67.24,56.0933333 65.6533333,55.52 64.08,55.12 C62.5066667,54.72 60.8666667,54.52 59.16,54.52 C59.0423848,54.52 58.9254613,54.5207928 58.8092293,54.5223785 C59.0776091,55.6630255 59.434504,56.7147586 59.88,57.68 C61,60.1066667 62.6666667,61.9466667 64.88,63.2 C67.0933333,64.4533333 69.8533333,65.08 73.16,65.08 C74.5466667,65.08 76.04,64.9066667 77.64,64.56 C79.24,64.2133333 80.8133333,63.6666667 82.36,62.92 C83.96,62.2266667 85.3866667,62.04 86.64,62.36 C87.8933333,62.68 88.9066667,63.32 89.68,64.28 C90.4533333,65.24 90.9466667,66.3466667 91.16,67.6 C91.3733333,68.8533333 91.2,70.0933333 90.64,71.32 C90.08,72.5466667 89.1066667,73.5333333 87.72,74.28 C85.8533333,75.4 83.5466667,76.28 80.8,76.92 C78.0533333,77.56 75.32,77.88 72.6,77.88 C66.36,77.88 61,76.68 56.52,74.28 C52.04,71.88 48.6133333,68.4933333 46.24,64.12 C45.9885221,63.6566026 45.7503675,63.184822 45.5255362,62.7046582 C44.6420348,64.9473293 44.2,67.6326473 44.2,70.76 C44.2,74.28 44.76,77.2533333 45.88,79.68 C47,82.1066667 48.6666667,83.9466667 50.88,85.2 C53.0933333,86.4533333 55.8533333,87.08 59.16,87.08 C60.5466667,87.08 62.04,86.9066667 63.64,86.56 C65.24,86.2133333 66.8133333,85.6666667 68.36,84.92 C69.96,84.2266667 71.3866667,84.04 72.64,84.36 C73.8933333,84.68 74.9066667,85.32 75.68,86.28 C76.4533333,87.24 76.9466667,88.3466667 77.16,89.6 C77.3733333,90.8533333 77.2,92.0933333 76.64,93.32 C76.08,94.5466667 75.1066667,95.5333333 73.72,96.28 C71.8533333,97.4 69.5466667,98.28 66.8,98.92 C64.0533333,99.56 61.32,99.88 58.6,99.88 C52.36,99.88 47,98.68 42.52,96.28 C38.04,93.88 34.6133333,90.4933333 32.24,86.12 C29.8666667,81.7466667 28.68,76.6266667 28.68,70.76 C28.68,66.3866667 29.36,62.4133333 30.72,58.84 C32.08,55.2666667 34.0533333,52.2 36.64,49.64 C38.4367543,47.8617689 40.5037081,46.3730373 42.8408613,45.1738051 C43.1150536,42.1887837 43.7415355,39.4108675 44.72,36.84 C46.08,33.2666667 48.0533333,30.2 50.64,27.64 C53.2266667,25.08 56.3733333,23.12 60.08,21.76 C63.7866667,20.4 67.96,19.72 72.6,19.72 Z" id="Combined-Shape" fill="#000000" fill-rule="nonzero"></path>
            </g>
        </g>
    </g>
</svg>